<svg width="10" height="12" viewBox="0 0 10 12" fill="none" xmlns="http://www.w3.org/2000/svg">
<path fill-rule="evenodd" clip-rule="evenodd" d="M7.93572 12C8.3398 12 8.64072 11.8968 8.83846 11.6905C9.0362 11.4841 9.13507 11.1639 9.13507 10.7297V6.20312C9.13507 5.76894 9.0362 5.44868 8.83846 5.24234C8.69015 5.08759 8.48381 4.99086 8.21944 4.95218L8.14134 4.94434L8.14206 3.42397C8.14206 2.84793 8.05608 2.34605 7.88413 1.91832C7.71218 1.4906 7.47683 1.13487 7.17806 0.851155C6.8793 0.567437 6.54292 0.354648 6.16893 0.212789C5.79494 0.0709296 5.40805 0 5.00826 0C4.60418 0 4.21514 0.0709296 3.84115 0.212789C3.46715 0.354648 3.13185 0.567437 2.83524 0.851155C2.53862 1.13487 2.30326 1.4906 2.12916 1.91832C1.95506 2.34605 1.86801 2.84793 1.86801 3.42397L1.86776 4.96992L1.7652 4.9888C1.55244 5.03666 1.37285 5.1244 1.22642 5.25202C0.992141 5.45621 0.875 5.77324 0.875 6.20312V10.7297C0.875 11.1639 0.974946 11.4841 1.17484 11.6905C1.37473 11.8968 1.67457 12 2.07436 12H7.93572ZM2.95063 4.94433L2.9513 3.30145C2.9513 2.81139 3.04588 2.39764 3.23502 2.06018C3.42417 1.72273 3.67457 1.46803 3.98623 1.29608C4.29789 1.12413 4.63857 1.03815 5.00826 1.03815C5.37795 1.03815 5.71863 1.12413 6.03029 1.29608C6.34195 1.46803 6.59128 1.72273 6.77828 2.06018C6.96527 2.39764 7.05877 2.81139 7.05877 3.30145L7.05846 4.93526L2.95063 4.94433Z" fill="#666666"/>
</svg>
