<svg width="32" height="32" viewBox="0 0 32 32" xmlns="http://www.w3.org/2000/svg">
<path fill-rule="evenodd" clip-rule="evenodd" d="M0 16C0 7.16344 7.16344 0 16 0C20.2435 0 24.3131 1.68571 27.3137 4.68629C30.3143 7.68687 32 11.7565 32 16C32 24.8366 24.8366 32 16 32C7.16344 32 0 24.8366 0 16ZM12.755 22.798L22.753 16.864C22.825 16.821 22.885 16.761 22.928 16.689C23.068 16.451 22.99 16.145 22.753 16.004L12.755 10.07C12.678 10.024 12.59 9.99997 12.5 9.99997C12.224 9.99997 12 10.224 12 10.5V22.368C12 22.458 12.024 22.546 12.07 22.623C12.211 22.86 12.518 22.938 12.755 22.798Z" fill="#ffffff" />
</svg>
