<svg width="32" height="32" viewBox="0 0 32 32" fill="none" xmlns="http://www.w3.org/2000/svg">
<path d="M26.1073 0H5.89274C4.33041 0.0019185 2.83259 0.669794 1.72786 1.8571C0.623144 3.04441 0.00174737 4.65419 0 6.33328L0 25.667C0.00178553 27.3461 0.623204 28.9558 1.72792 30.1431C2.83264 31.3303 4.33045 31.9981 5.89274 32H26.1073C27.6696 31.9981 29.1674 31.3303 30.2721 30.1431C31.3768 28.9558 31.9982 27.3461 32 25.667V6.33328C31.9983 4.65419 31.3769 3.04441 30.2721 1.8571C29.1674 0.669795 27.6696 0.00191921 26.1073 0V0Z" fill="white"/>
<path d="M26.0947 0.59613H5.88021C4.46827 0.597876 3.11462 1.20147 2.11624 2.27449C1.11786 3.34752 0.556274 4.80234 0.554688 6.3198V25.6536C0.556285 27.171 1.11788 28.6258 2.11627 29.6987C3.11466 30.7717 4.46829 31.3752 5.88021 31.3769H26.0947C27.5066 31.3752 28.8603 30.7717 29.8587 29.6987C30.857 28.6258 31.4186 27.171 31.4203 25.6536V6.3198C31.4187 4.80234 30.8571 3.34753 29.8587 2.27451C28.8603 1.20149 27.5067 0.597889 26.0947 0.59613ZM30.6319 25.6536C30.6305 26.9464 30.1521 28.1858 29.3015 29.1C28.4509 30.0142 27.2977 30.5284 26.0947 30.5299H5.87191C4.66899 30.5284 3.51573 30.0142 2.66514 29.1C1.81455 28.1858 1.3361 26.9464 1.33475 25.6536V6.3198C1.33609 5.02698 1.81454 3.78752 2.66513 2.87334C3.51572 1.95917 4.66899 1.44494 5.87191 1.44348H26.0947C27.2977 1.44494 28.4509 1.95917 29.3015 2.87334C30.1521 3.78751 30.6306 5.02698 30.6319 6.3198V25.6536Z" fill="url(#paint0_linear_3452_13802)"/>
<path fill-rule="evenodd" clip-rule="evenodd" d="M10.169 8.56832H6.52375V10.0314H9.49368L9.49359 13.0901H6.49896L6.49754 16.7153H3.45605V5.50262H9.96915L10.169 8.56832ZM15.37 5.54849C12.419 5.54849 10.0267 8.0792 10.0267 11.2011C10.0267 14.323 12.419 16.8538 15.37 16.8538C18.321 16.8538 20.7133 14.323 20.7133 11.2011C20.7133 8.0792 18.3211 5.54849 15.37 5.54849ZM16.2976 13.5033C16.2886 13.7652 16.1851 14.013 16.0089 14.1942C15.8328 14.3754 15.5979 14.4757 15.3541 14.4739C15.1103 14.4721 14.8767 14.3683 14.7029 14.1845C14.5292 14.0007 14.4288 13.7513 14.4232 13.4894L14.4244 8.7375C14.4244 8.19365 14.84 7.70718 15.3538 7.70718C15.6064 7.71407 15.847 7.82469 16.0262 8.01631C16.2053 8.20794 16.3093 8.466 16.3169 8.7375L16.2976 13.5033ZM28.5619 5.54849H25.2157L23.9624 7.87771L22.6666 5.54849H19.312L22.3103 10.948L19.2 16.7278L22.4908 16.7246L23.9878 13.9689L25.5197 16.7278H28.8855L25.6494 10.9101L28.5619 5.54849Z" fill="url(#paint1_linear_3452_13802)"/>
<path d="M2.00537 19.9471V26.2333C2.14389 27.2343 2.61209 28.1487 3.32484 28.8101C4.03758 29.4715 4.94752 29.836 5.88917 29.8373H26.112C27.1029 29.8359 28.0567 29.4323 28.7825 28.7073C29.5083 27.9824 29.9525 26.9895 30.0262 25.9276V19.9471H2.00537Z" fill="url(#paint2_linear_3452_13802)"/>
<path fill-rule="evenodd" clip-rule="evenodd" d="M28.565 27.3297L27.5712 25.118C28.0821 24.8723 28.3375 24.4278 28.3375 23.7847C28.3375 23.183 28.1473 22.7191 27.7669 22.3929C27.4677 22.138 27.0167 22.0105 26.4141 22.0106H25.0453V27.3297H26.3756V25.4694L26.3661 25.118L27.1193 27.3297H28.565ZM26.8565 24.2844C26.8096 24.3449 26.7507 24.3933 26.6842 24.426C26.6176 24.4588 26.545 24.4752 26.4718 24.4738H26.3821V23.206H26.4301C26.817 23.206 27.0104 23.4047 27.0103 23.802C27.0166 23.9778 26.9618 24.1498 26.8565 24.2844ZM7.07546 25.4006L6.5722 22.0106H5.42146L4.95655 25.3351L4.52069 22.0106H3.19995L4.30268 27.3298H5.60411L5.99845 24.0018L6.50172 27.3298H7.79034L8.79362 22.0106H7.48903L7.07546 25.4006ZM13.0079 22.0106L11.8186 27.3297H13.2002L13.3092 26.6545H14.21L14.3093 27.3297H15.691L14.6427 22.0106H13.0079ZM13.4887 25.5143L13.8029 23.2817L14.0529 25.5143H13.4887ZM11.5722 27.3298H9.08795V22.0106H11.5722V23.2611H10.4247V24.0363H11.4536V25.2388H10.4247V26.0519H11.5722V27.3298ZM15.3173 23.2852H16.0546V27.3298H17.3913V23.2852H18.1575V22.0106H15.3173V23.2852ZM24.6709 27.3298H22.1866V22.0106H24.6709V23.2611H23.5233V24.0363H24.5523V25.2388H23.5233V26.0519H24.6709V27.3298ZM19.8539 23.8917H20.4918V22.0106H21.8287V27.3298H20.4918V25.1905H19.8539V27.3298H18.5173V22.0106H19.8539V23.8917Z" fill="white"/>
<defs>
<linearGradient id="paint0_linear_3452_13802" x1="15.9875" y1="0.59613" x2="15.9875" y2="31.3769" gradientUnits="userSpaceOnUse">
<stop stop-color="#363795"/>
<stop offset="0.0885417" stop-color="#244391"/>
<stop offset="0.807292" stop-color="#1CA4DE"/>
<stop offset="1" stop-color="#1CA4DE"/>
</linearGradient>
<linearGradient id="paint1_linear_3452_13802" x1="6.81254" y1="5.50262" x2="6.81254" y2="16.7153" gradientUnits="userSpaceOnUse">
<stop stop-color="#363795"/>
<stop offset="0.0885417" stop-color="#244391"/>
<stop offset="0.807292" stop-color="#1CA4DE"/>
<stop offset="1" stop-color="#1CA4DE"/>
</linearGradient>
<linearGradient id="paint2_linear_3452_13802" x1="16.0158" y1="-0.762564" x2="16.0158" y2="29.3525" gradientUnits="userSpaceOnUse">
<stop offset="0.66854" stop-color="#F29040"/>
<stop offset="0.88764" stop-color="#EE693C"/>
<stop offset="1" stop-color="#CD3A27"/>
</linearGradient>
</defs>
</svg>
