<svg width="32" height="32" viewBox="0 0 32 32" fill="none" xmlns="http://www.w3.org/2000/svg">
<rect width="32" height="32" fill="white"/>
<path fill-rule="evenodd" clip-rule="evenodd" d="M29.5111 30.5422H30.5777V27.7333H29.5111V30.5422ZM28.0462 29.5253C28.0534 28.8 27.4205 28.3662 26.4 28.3662H26.3751C25.3867 28.3662 24.7466 28.7893 24.7466 29.4827C24.7466 30.176 25.4009 30.5777 26.4 30.5777C27.2284 30.5777 27.8222 30.3147 28 29.8666H26.9796C26.9049 30.016 26.7236 30.0942 26.4356 30.0942C26.0586 30.0942 25.856 29.9378 25.856 29.6463H28.0462C28.0492 29.6059 28.0492 29.5656 28.0462 29.5253ZM23.3493 29.1556C23.3351 28.6329 23.04 28.3876 22.2542 28.3876H22.2293C21.8699 28.3574 21.5143 28.4785 21.248 28.7218V28.4444H20.2347V30.5173H21.3013V29.4044C21.3013 29.0489 21.4543 28.9031 21.8383 28.9031C22.2223 28.9031 22.2826 29.088 22.2826 29.4684V30.5103H23.3493V29.1556ZM18.3324 29.1556C18.3182 28.6329 18.0267 28.3876 17.2409 28.3876H17.2302C16.8709 28.3574 16.5151 28.4785 16.2489 28.7218V28.4444H15.2177V30.5173H16.2844V29.4044C16.2844 29.0489 16.4373 28.9031 16.8214 28.9031C17.2053 28.9031 17.2657 29.088 17.2657 29.4684V30.5103H18.3324V29.1556ZM13.6036 30.432C13.5111 30.3964 13.4613 30.2862 13.4613 30.1013L13.4578 30.1049V29.3191C13.4998 29.0759 13.4201 28.8276 13.2444 28.6543C12.8869 28.4381 12.4691 28.3433 12.0534 28.384C11.1324 28.384 10.6311 28.608 10.528 29.0951H11.5058C11.5484 28.9422 11.7263 28.8605 12.032 28.8605C12.3378 28.8605 12.4516 28.9244 12.4516 29.0454V29.0951C12.4516 29.2551 12.0498 29.2231 11.2996 29.3369C10.7271 29.4223 10.4391 29.6356 10.4391 29.9804C10.4391 30.3253 10.816 30.5778 11.4524 30.5778C11.8164 30.5886 12.1754 30.4908 12.4836 30.2969C12.4943 30.3696 12.5121 30.4411 12.5369 30.5103H13.6036V30.432ZM9.05956 29.12C9.05956 28.6577 8.69331 28.416 8.01425 28.416H8.00712C7.64569 28.3893 7.28819 28.5054 7.01156 28.7396V27.7333H5.94487V30.5422H7.01156V29.4364C7.01156 29.0809 7.16444 28.9351 7.54844 28.9351C7.93244 28.9351 7.99287 29.12 7.99287 29.5004V30.5422H9.05956V29.12ZM2.50662 29.4791C2.50662 29.1023 2.70931 28.8818 3.07556 28.8818C3.2805 28.8461 3.48187 28.961 3.55556 29.1556H4.62225C4.55469 28.6506 3.98225 28.3484 3.08981 28.3484C2.06931 28.3627 1.42219 28.8 1.42219 29.5111C1.42219 30.1582 2.05862 30.5777 3.02581 30.5777C3.91819 30.5777 4.50131 30.2684 4.608 29.7422H3.55556C3.49512 29.9449 3.328 30.0444 3.05425 30.0444C2.69869 30.0444 2.50662 29.856 2.50662 29.4791ZM0 32H32V26.3125H0V32ZM11.4382 29.8809C11.4382 30.0231 11.5911 30.1262 11.8294 30.1262C12.1884 30.1262 12.4444 29.9911 12.4444 29.7707V29.5325C12.2316 29.5911 12.0137 29.6304 11.7937 29.6497C11.5484 29.6924 11.4382 29.7386 11.4382 29.8809ZM27.0116 29.2516H25.8027C25.8453 28.9742 26.0658 28.8249 26.4071 28.8249C26.7484 28.8249 27.0044 28.9813 27.0116 29.2516Z" fill="#C20017"/>
<path fill-rule="evenodd" clip-rule="evenodd" d="M28.3413 16.9564C26.6346 16.9564 25.5894 18.0053 25.5894 19.4169C25.5894 20.6365 26.3004 21.2373 27.7227 21.664C28.5724 21.92 29.024 21.8987 29.024 22.4462C29.024 22.7342 28.7573 22.9583 28.3129 22.9583C27.7284 23.0252 27.1933 22.6243 27.0933 22.0444L25.2943 22.4391C25.6 23.8614 26.6596 24.7076 28.2844 24.7076C29.0877 24.7293 29.8626 24.4103 30.4178 23.8294C30.8284 23.3786 31.0532 22.7892 31.0471 22.1796C31.0806 21.5838 30.8565 21.0024 30.432 20.5831H30.4356C29.9377 20.1244 29.3689 20.0036 28.7289 19.8222C27.9716 19.6089 27.5556 19.5876 27.5556 19.1467C27.5708 18.9889 27.6485 18.8437 27.7714 18.7436C27.8943 18.6433 28.0521 18.5964 28.2098 18.6134C28.6926 18.5738 29.1319 18.8924 29.2444 19.3636L30.88 18.8196C30.5758 17.6797 29.5199 16.9049 28.3413 16.9564ZM23.9147 24.6934L25.6569 17.1982H24.1138L23.1858 21.4897L22.2791 17.1982H20.6791L19.8151 21.5325L18.9156 17.1982H17.0063L18.7378 24.6934H20.48L21.3333 20.3982L22.2116 24.6934H23.9147ZM16.6827 22.8907H13.696V21.6284H16.1173V20.0249H13.696V18.9334H16.6436V17.1982H11.8294V24.6934H16.6827V22.8907ZM11.3564 17.2196H9.50756L9.50044 20.9601L7.26756 17.2302H5.10225V24.6969H7.00444V20.3342L9.55375 24.6863H11.3564V17.2196ZM10.7769 15.6444H13.1556V13.0418H15.4916V10.8587H13.1556V9.81694H16L15.8436 7.62669H10.7769V15.6444ZM15.8934 11.6729C15.9304 13.9377 17.7956 15.7441 20.0604 15.7084H20.0676C22.3296 15.7401 24.1906 13.9349 24.2276 11.6729C24.1353 9.43838 22.2969 7.67444 20.0604 7.67444C17.8241 7.67444 15.9857 9.43838 15.8934 11.6729ZM23.1111 7.63737L25.4507 11.4916L23.0436 15.6196H25.6L26.7662 13.6533L27.9609 15.6231H30.5777L28.0534 11.4703L30.3253 7.64094H27.7333L26.7556 9.30487L25.7422 7.63737H23.1111ZM31.1289 16.032H30.7342C31.1818 16.8582 31.5842 17.7079 31.9396 18.5777H32V25.9375H0.21775L4.62225 19.0614V16.7111H6.00175L10.3111 9.68175V7.11112H12.0569L14.4889 3.33512C17.4914 4.10475 20.3287 5.41437 22.8622 7.2H23.4667C23.0353 6.88 22.592 6.57306 22.1369 6.27913C19.844 4.80463 17.3307 3.70519 14.6916 3.02225L16.6827 0H32V17.8454C31.7298 17.2314 31.4394 16.627 31.1289 16.032ZM5.312 0H0V3.55556C1.57419 3.02712 3.19606 2.65319 4.84263 2.43913L5.312 0ZM20.0623 13.997C20.4469 13.997 20.7661 13.6994 20.7929 13.3156V9.91294C20.7778 9.50731 20.4485 9.18419 20.0427 9.17688C19.6475 9.19394 19.3349 9.51744 19.3316 9.91294V13.3156C19.3583 13.6994 19.6775 13.997 20.0623 13.997ZM12.5049 0H9.11287L8.25956 2.21156C9.28263 2.21006 10.3049 2.26944 11.3209 2.38937L12.5049 0ZM8.13869 2.56L0.03825 25.9375H0.0761875L11.1609 2.72356C10.1577 2.60825 9.14844 2.55362 8.13869 2.56ZM4.76444 2.80538L0 25.5218V3.94669H0.0213125C1.56169 3.41363 3.15019 3.03138 4.76444 2.80538Z" fill="#003366"/>
</svg>
