<svg width="109" height="12" viewBox="0 0 109 12" fill="none" xmlns="http://www.w3.org/2000/svg">
<path d="M71.5035 7.93308C71.3439 7.80771 71.2635 7.65969 71.2625 7.48903C71.2648 6.97421 72.0281 6.67097 73.5466 6.56787V7.01529C73.5466 7.32505 73.4146 7.58891 73.1563 7.80115C72.8981 8.01338 72.5767 8.12237 72.1922 8.12237C71.8938 8.12237 71.6642 8.05927 71.5035 7.93308Z" fill="#999999"/>
<path d="M71.2625 7.48903L71.2625 7.48566V7.49139L71.2625 7.48903Z" fill="#999999"/>
<path d="M88.2152 6.53919C88.2152 5.44359 88.6341 4.89866 89.4777 4.89866H89.4835C90.1894 4.89866 90.5394 5.28298 90.5394 6.05736V6.98088C90.5394 7.30784 90.4246 7.55449 90.1951 7.73231C89.9655 7.91013 89.7015 7.99617 89.3974 7.99617C88.6112 7.99617 88.2152 7.51434 88.2152 6.53919Z" fill="#999999"/>
<path d="M102.795 4.84704C102.383 4.84754 102.074 4.95652 101.862 5.16826C101.656 5.3805 101.547 5.80497 101.547 6.44168C101.547 7.02677 101.644 7.43977 101.845 7.6979C102.046 7.95029 102.356 8.07648 102.78 8.07648C103.148 8.07648 103.452 7.9675 103.676 7.74952C103.905 7.53155 104.02 7.11855 104.02 6.51052C104.02 5.86233 103.917 5.42639 103.716 5.19121C103.515 4.96228 103.207 4.84756 102.795 4.84704Z" fill="#999999"/>
<path d="M102.795 4.84704L102.798 4.84704H102.792L102.795 4.84704Z" fill="#999999"/>
<path fill-rule="evenodd" clip-rule="evenodd" d="M66.2639 11.9369V-9.53674e-07L108.996 0.0458881V11.9369H66.2639ZM73.6441 8.15679C73.6441 8.47228 73.6786 8.7304 73.7474 8.92543V8.93117H75.8651C75.779 8.74187 75.7331 8.43786 75.7331 8.00765V5.77055C75.7331 5.33461 75.6872 5.03059 75.6011 4.85851C75.515 4.68642 75.3428 4.52008 75.0961 4.3652C74.8493 4.21032 74.4992 4.0956 74.0573 4.0153C73.6154 3.94073 73.1448 3.90057 72.6398 3.90057C71.8019 3.90057 71.0502 4.0153 70.3844 4.25048C69.7187 4.48566 69.3228 4.88145 69.1908 5.44359L71.2051 5.56979C71.2969 5.09369 71.7216 4.85277 72.4849 4.85277C73.2022 4.85277 73.558 5.09369 73.558 5.56979V5.85086C72.1004 5.91969 71.0961 6.02868 70.5451 6.17782C69.9942 6.32696 69.5925 6.53346 69.3457 6.79159C69.0989 7.05545 68.9727 7.33652 68.9727 7.64627C68.9727 8.07075 69.185 8.40344 69.6097 8.65583C70.0344 8.90249 70.591 9.02868 71.2855 9.02868C71.7503 9.02868 72.1692 8.97132 72.5365 8.8566C72.9038 8.74187 73.2711 8.50669 73.6441 8.15679ZM81.9598 8.92543H83.9799V3.99809H81.7991V6.76291C81.7991 7.05545 81.7704 7.26195 81.713 7.38241C81.6556 7.50287 81.5294 7.61759 81.3227 7.72084C81.1219 7.82983 80.8751 7.88145 80.5997 7.88145C80.0545 7.88145 79.779 7.65774 79.779 7.21606V3.99809H77.6613V7.21606C77.6613 7.66922 77.7245 8.01338 77.8565 8.2543C77.9885 8.49522 78.2008 8.68451 78.4992 8.82218C78.7976 8.95985 79.2223 9.02868 79.779 9.02868C80.8522 9.02868 81.581 8.71319 81.9598 8.08795V8.92543ZM90.6312 8.92543H92.6456V2.26577H90.5279V4.51434C90.1032 4.10134 89.4949 3.89484 88.7087 3.89484C87.8134 3.89484 87.1305 4.12428 86.6599 4.58891C86.1893 5.05354 85.954 5.7304 85.954 6.51625C85.954 7.3021 86.1893 7.92161 86.6599 8.36329C87.1362 8.80497 87.779 9.02868 88.5939 9.02868C89.4548 9.02868 90.1319 8.74187 90.6312 8.15679V8.92543ZM94.9354 8.92543H97.1162V4.46271H94.9354V8.92543ZM94.9354 3.58509H97.1162V2.12811H94.9354V3.58509ZM102.717 9.02868C103.808 9.02868 104.68 8.78776 105.334 8.30019L105.34 8.29445C105.994 7.80688 106.321 7.20459 106.321 6.47036C106.321 5.73614 106.006 5.12237 105.374 4.62906C104.743 4.14149 103.865 3.89484 102.74 3.89484C101.977 3.89484 101.351 4.00956 100.852 4.23327C100.353 4.45698 99.9626 4.74952 99.6757 5.11663C99.3888 5.48375 99.2453 5.93117 99.2453 6.45315C99.2453 7.20459 99.5609 7.82409 100.192 8.30593C100.823 8.78776 101.627 9.02868 102.717 9.02868Z" fill="#999999"/>
<path d="M0.995605 2.23709L1.01856 12H1.07595L3.34281 2.55258C2.59675 2.35182 1.81053 2.24857 0.995605 2.23709Z" fill="#999999"/>
<path d="M6.37866 3.95793C5.99989 3.69407 5.60391 3.45889 5.18497 3.24665L1.16201 12H1.25384L6.37866 3.95793Z" fill="#999999"/>
<path d="M3.95113 0.0229439L3.45185 2.1109V2.11663C2.66562 1.91013 1.84496 1.79541 0.995605 1.78967V0.0229439H3.95113Z" fill="#999999"/>
<path d="M6.62546 3.57361L8.89232 0.0229439H6.67137L5.37438 2.83365C5.81054 3.05162 6.22374 3.29828 6.61972 3.57361H6.62546Z" fill="#999999"/>
<path d="M18.7001 4.19885C18.7001 3.78011 19.0444 3.40726 19.4691 3.40726H19.4748C19.8937 3.40726 20.2668 3.78011 20.2668 4.19885L20.2495 7.85277C20.2495 8.27151 19.8937 8.59847 19.4691 8.59847C19.0444 8.59847 18.7001 8.26004 18.7001 7.8413V4.19885Z" fill="#999999"/>
<path fill-rule="evenodd" clip-rule="evenodd" d="M10.8263 1.29063L11.9511 0.0229439H65.6211V12H10.9698V11.8566C10.9698 11.4952 10.9525 11.1338 10.9124 10.7839H10.4533C10.4934 11.1338 10.5164 11.4952 10.5164 11.8566V12H1.33992L7.58956 4.94455C8.22084 5.55832 8.77177 6.26386 9.2194 7.03251V6.18356C8.82916 5.61568 8.38153 5.08222 7.88798 4.60612L9.2194 3.10325V1.29063H10.8263ZM12.1749 7.55449H14.6426L14.6484 7.56023V5.21415H12.1979V4.08987H15.2051L15.0386 1.73805H9.66704V10.3365H12.1749V7.55449ZM15.0731 6.08031C15.0731 8.47801 17.0472 10.4168 19.4805 10.4168C21.9138 10.4168 23.888 8.47801 23.888 6.08031C23.888 3.6826 21.9138 1.74379 19.4805 1.74379C17.0472 1.74379 15.0731 3.6826 15.0731 6.08031ZM26.5738 8.20268L27.8363 10.3193H30.614L27.9454 5.8566L30.3442 1.74379H27.5838L26.5508 3.52772L25.4834 1.74379H22.7173L25.1907 5.88528L22.6254 10.3136H25.3399L26.5738 8.20268ZM37.9942 10.3193H40.0831V1.74379H37.9368V6.06883L35.3428 1.73805H32.8464L32.8234 10.3136H35.0329V5.34608L37.9942 10.3193ZM40.6398 10.325H46.2696V8.32314H42.8091V6.85468H45.6211V4.99044H42.8091V3.72275H46.2295V1.70937H40.6398V10.325ZM51.6699 5.42065L52.6914 10.325H54.6713L56.6914 1.70363H54.9009L53.8277 6.6826L52.7718 1.70363H50.9124L49.9138 6.73423L48.8693 1.70363H46.6541L48.6627 10.325H50.6828L51.6699 5.42065ZM59.7388 10.4054C60.7546 10.4054 61.6154 10.044 62.2237 9.38432H62.218C62.6886 8.87381 62.9468 8.19121 62.9468 7.46845C62.9468 6.69407 62.7 6.0631 62.2294 5.62715C61.7266 5.15976 61.1445 4.9962 60.5179 4.82011C60.4293 4.79522 60.3398 4.77007 60.2495 4.74379C60.104 4.70291 59.9694 4.66818 59.846 4.63635C59.2249 4.47614 58.8894 4.38958 58.8894 3.96367C58.8894 3.63097 59.2051 3.34417 59.6527 3.34417C60.261 3.34417 60.6283 3.59656 60.8521 4.21606L62.7459 3.58509C62.2754 2.17973 61.2596 1.42256 59.8019 1.42256C57.822 1.42256 56.6111 2.63862 56.6111 4.27916C56.6111 5.69598 57.426 6.39006 59.1075 6.8891C59.3066 6.94927 59.4868 6.99637 59.6476 7.0384C60.284 7.20473 60.6168 7.29171 60.6168 7.79541C60.6168 8.13384 60.3012 8.39197 59.7789 8.39197C58.9755 8.39197 58.5164 8.03633 58.3557 7.31358L56.2667 7.77247C56.6226 9.43595 57.8507 10.4054 59.7388 10.4054Z" fill="#999999"/>
</svg>
