<svg width="91" height="16" viewBox="0 0 91 16" fill="none" xmlns="http://www.w3.org/2000/svg">
<g clip-path="url(#clip0_2182_6230)">
<path fill-rule="evenodd" clip-rule="evenodd" d="M11.8803 5.42943H8.05942V6.85486H11.1739V9.83384H8.02731V13.3734H4.83252V2.45045H11.6716L11.8803 5.42943ZM17.3388 2.46647C16.2499 2.48214 15.1899 2.81859 14.2922 3.43352C13.3944 4.04846 12.6989 4.91442 12.2931 5.92257C11.8873 6.93072 11.7892 8.03606 12.0113 9.09963C12.2334 10.1632 12.7657 11.1376 13.5412 11.9002C14.3168 12.6628 15.3011 13.1797 16.3703 13.3859C17.4395 13.5921 18.5459 13.4784 19.5505 13.059C20.5551 12.6396 21.413 11.9333 22.0164 11.0289C22.6198 10.1245 22.9417 9.06238 22.9417 7.97598C22.9367 7.24711 22.7879 6.52636 22.5035 5.85492C22.2192 5.18348 21.8051 4.57453 21.2847 4.06286C20.7644 3.55119 20.1481 3.14684 19.471 2.87292C18.7939 2.599 18.0694 2.46089 17.3388 2.46647ZM18.302 10.2182C18.2917 10.4739 18.182 10.7155 17.9963 10.892C17.8106 11.0685 17.5634 11.166 17.3069 11.1639C17.0504 11.1619 16.8048 11.0604 16.622 10.8809C16.4392 10.7014 16.3335 10.458 16.3273 10.2022V5.57357C16.3271 5.31141 16.4293 5.05946 16.6121 4.87112C16.7949 4.68277 17.044 4.57282 17.3067 4.56456C17.5727 4.57158 17.8259 4.68013 18.0141 4.86786C18.2022 5.05559 18.311 5.30818 18.3181 5.57357L18.302 10.2182ZM31.1775 2.46647H27.6616L26.3452 4.72473L24.9806 2.46647H21.4647L24.6113 7.71972L21.3363 13.3574H24.7879L26.3612 10.6667L27.9827 13.3574H31.5146L28.1111 7.68769L31.1775 2.46647Z" fill="#999999"/>
<path d="M86.1312 0H5.86004C3.17898 0 0.995605 2.0981 0.995605 4.67668V11.3233C0.995605 13.9019 3.17898 16 5.86004 16H86.1312C88.8122 16 90.9956 13.9019 90.9956 11.3233V4.67668C90.9956 2.0981 88.8122 0 86.1312 0ZM90.2732 11.3233C90.2732 13.5175 88.4109 15.3113 86.1312 15.3113H5.86004C3.56428 15.2953 1.70199 13.5175 1.70199 11.3233V4.67668C1.70199 2.48248 3.56428 0.688689 5.86004 0.688689H86.1312C88.4109 0.688689 90.2732 2.46647 90.2732 4.67668V11.3233ZM17.3388 2.46647C16.2499 2.48214 15.19 2.81859 14.2922 3.43353C13.3945 4.04846 12.699 4.91443 12.2931 5.92257C11.8873 6.93072 11.7893 8.03606 12.0113 9.09964C12.2334 10.1632 12.7657 11.1376 13.5413 11.9002C14.3168 12.6628 15.3011 13.1797 16.3703 13.3859C17.4395 13.5921 18.546 13.4784 19.5505 13.059C20.5551 12.6396 21.4131 11.9333 22.0164 11.0289C22.6198 10.1245 22.9417 9.06238 22.9417 7.97598C22.9368 7.24711 22.7879 6.52636 22.5036 5.85492C22.2193 5.18349 21.8051 4.57453 21.2848 4.06286C20.7644 3.55119 20.1481 3.14684 19.471 2.87292C18.794 2.599 18.0694 2.46089 17.3388 2.46647ZM18.3021 10.2182C18.2917 10.4739 18.1821 10.7155 17.9964 10.892C17.8107 11.0685 17.5634 11.166 17.307 11.1639C17.0505 11.1619 16.8049 11.0604 16.6221 10.8809C16.4392 10.7014 16.3336 10.458 16.3274 10.2022V5.57357C16.3272 5.31141 16.4293 5.05946 16.6121 4.87112C16.7949 4.68277 17.044 4.57282 17.3067 4.56457C17.5727 4.57158 17.8259 4.68014 18.0141 4.86786C18.2023 5.05559 18.3111 5.30818 18.3181 5.57357L18.3021 10.2182ZM28.1112 7.68769L31.5147 13.3574H27.9828L26.3773 10.6667L24.804 13.3574H21.3524L24.6114 7.71972L21.4647 2.45045H24.9806L26.3452 4.72473L27.6617 2.45045H31.1776L28.1112 7.68769ZM8.05947 6.85486H11.174V9.83384H8.02736V13.3734H4.83257V2.45045H11.6717L11.8804 5.44545H8.05947V6.85486Z" fill="#999999"/>
<path fill-rule="evenodd" clip-rule="evenodd" d="M33.5054 1.29729H85.6174C87.8008 1.29729 89.5989 2.77077 89.6149 4.94895V11.0991C89.6149 13.2933 87.8168 14.7507 85.6174 14.7507H33.5054V1.29729ZM44.358 2.8989L43.5232 9.27327L42.5118 2.8989H40.184L39.2368 9.14514L38.3538 2.8989H35.6727L37.9042 12.8929H40.5371L41.3399 6.63063L42.3513 12.8929H44.9681L47.007 2.8989H44.358ZM52.6099 12.9089H47.5849V2.8989H52.6099V5.25325H50.2821V6.71071H52.3691V8.96897H50.2821V10.5065H52.6099V12.9089ZM60.9902 12.8929L58.8711 2.8989H55.5478L53.1397 12.8929H55.9331L56.1579 11.6276H57.9881L58.1968 12.8929H60.9902ZM57.667 9.49749H56.5271L57.1533 5.3013L57.667 9.49749ZM61.7127 5.3013H60.2357V2.8989H65.9831V5.3013H64.4258V12.9089H61.7127V5.3013ZM69.4187 6.43844H70.703L70.687 2.8989H73.4001V12.9089H70.703V8.88889H69.4187V12.8929H66.7055V2.8989H69.4187V6.43844ZM79.1636 12.9089H74.1386V2.8989H79.1636V5.25325H76.8357V6.71071H78.9228V8.96897H76.8357V10.5065H79.1636V12.9089ZM82.5992 9.4014L82.5831 8.74474L84.1083 12.8929H87.0302L85.0234 8.72873C86.0669 8.28028 86.5806 7.43143 86.5806 6.23023C86.5806 5.10911 86.1954 4.22822 85.4247 3.61962C84.8147 3.13914 83.8996 2.8989 82.6795 2.8989H79.9021V12.8929H82.5992V9.4014ZM82.7116 5.15715C83.4982 5.15715 83.8835 5.52552 83.8835 6.27828C83.896 6.60938 83.7876 6.93376 83.5785 7.19119C83.4805 7.30293 83.3595 7.39225 83.2238 7.45306C83.088 7.51387 82.9407 7.54473 82.7919 7.54354H82.6153V5.15715H82.7116Z" fill="#999999"/>
</g>
<defs>
<clipPath id="clip0_2182_6230">
<rect width="90" height="16" fill="white" transform="translate(0.995605)"/>
</clipPath>
</defs>
</svg>
