<svg width="119" height="12" viewBox="0 0 119 12" fill="none" xmlns="http://www.w3.org/2000/svg">
<path fill-rule="evenodd" clip-rule="evenodd" d="M12.85 0C16.0737 0 18.6915 2.3985 18.6915 5.35915C18.6915 8.3198 16.0811 10.7183 12.85 10.7183C9.61877 10.7183 7.00091 8.3198 7.00091 5.35915C7.00091 2.3985 9.62625 0 12.85 0ZM23.9871 5.1193L27.2931 0.0374766H23.4785L22.2743 2.28607L20.898 0.0374766H17.1582L20.337 5.05934L16.8815 10.6433H20.6213L22.1621 8.29731L23.7178 10.6433H27.5324L23.9871 5.1193ZM3.16387 2.96065H7.09814L7.06074 0.0899438H0V10.6658H3.12647V7.3529H6.52969V4.35478H3.16387V2.96065ZM13.8672 2.96814V7.46533C13.8672 7.97502 13.7999 8.39475 12.85 8.39475C11.9 8.39475 11.8926 7.86259 11.8926 7.86259V2.96065C11.8926 2.96065 11.8926 2.21112 12.8874 2.21112C13.8821 2.21112 13.8672 2.96814 13.8672 2.96814ZM55.3865 8.21487C55.6782 8.21487 55.8203 7.94503 55.8203 7.40537L55.8502 0.0749531H57.9669V7.40537C57.9789 8.23886 57.716 9.053 57.219 9.72142C56.8099 10.3337 56.1217 10.6996 55.3865 10.6958H49.4551C48.7165 10.7049 48.0238 10.338 47.6151 9.72142C47.1289 9.04955 46.879 8.23494 46.9046 7.40537V0.0749531H49.0064V7.40537C49.0064 7.94503 49.1559 8.21487 49.4551 8.21487H55.3865ZM67.481 4.14491H61.8339C61.5422 4.14491 61.4001 3.88257 61.4001 3.39538C61.4001 2.90818 61.5422 2.59338 61.8339 2.59338H69.5902V0.112334H61.8339C61.0997 0.105574 60.4112 0.468849 60.0014 1.07933C59.5054 1.74827 59.2426 2.56206 59.2534 3.39538C59.2316 4.20243 59.479 4.99372 59.9565 5.64397C60.3698 6.2621 61.0615 6.63533 61.804 6.64085H67.4436C67.7353 6.64085 67.8774 6.90319 67.8774 7.43535C67.8774 7.96752 67.7353 8.22986 67.4436 8.22986H59.7246V10.7108H67.481C68.2221 10.707 68.9134 10.3367 69.3284 9.72142C70.2352 8.33283 70.2352 6.53788 69.3284 5.14928C68.9168 4.5283 68.2249 4.15211 67.481 4.14491ZM73.2178 10.6958H71.1161V0.0749531H73.2178V10.6958ZM82.0438 7.18051L76.6584 0.0749531H74.5642V10.6958H76.6584V3.56027L82.0512 10.7108H84.138V0.0749531H82.0438V7.18051ZM95.0583 10.6958H85.4844V0.0749531H95.0882V2.5559H87.6086V4.14491H94.6095V6.62586H87.5787V8.21487H95.0583V10.6958ZM104.61 4.14491H98.9701C98.6784 4.14491 98.5363 3.88257 98.5363 3.39538C98.5363 2.90818 98.6784 2.59338 98.9701 2.59338H106.719V0.112339H98.9701C98.2339 0.105758 97.5433 0.468697 97.1301 1.07933C96.6504 1.75443 96.4011 2.5668 96.4195 3.39538C96.3989 4.20109 96.6434 4.99123 97.1152 5.64397C97.5299 6.26429 98.225 6.63781 98.9701 6.64085H104.61C104.901 6.64085 105.044 6.90319 105.044 7.43535C105.044 7.96752 104.901 8.22986 104.61 8.22986H96.8534V10.7108H104.61C105.353 10.7094 106.048 10.3389 106.465 9.72142C107.371 8.33283 107.371 6.53788 106.465 5.14928C106.052 4.52611 105.356 4.14963 104.61 4.14491ZM116.442 4.14491C117.186 4.14627 117.881 4.51682 118.297 5.13429V5.14928C119.204 6.53788 119.204 8.33283 118.297 9.72142C117.881 10.3389 117.186 10.7094 116.442 10.7108H108.686V8.22986H116.435C116.727 8.22986 116.876 7.96752 116.876 7.43535C116.876 6.90319 116.727 6.64085 116.435 6.64085H110.795C110.053 6.63533 109.361 6.2621 108.948 5.64397C108.476 4.99123 108.232 4.20109 108.252 3.39538C108.234 2.5668 108.483 1.75443 108.963 1.07933C109.375 0.470915 110.062 0.10827 110.795 0.112394H118.544V2.59338H110.795C110.504 2.59338 110.362 2.90818 110.362 3.39538C110.362 3.88257 110.504 4.14491 110.795 4.14491H116.442ZM44.6831 5.30668C45.3227 4.7159 45.6633 3.86821 45.6106 2.99813C45.6331 2.2744 45.4118 1.56416 44.9823 0.981886C44.5416 0.386785 43.8365 0.0475309 43.0975 0.0749532H34.5408V10.6958H43.2545C43.9936 10.7232 44.6986 10.384 45.1394 9.78888C45.5817 9.20918 45.8115 8.49459 45.7901 7.76515C45.859 6.81093 45.4427 5.88632 44.6831 5.30668ZM43.0975 2.5559H36.6426V4.17489H43.0975C43.4041 4.17489 43.5537 3.90506 43.5537 3.3654C43.5537 2.82573 43.4041 2.5559 43.0975 2.5559ZM43.262 8.21487H36.6426V6.62586H43.262C43.5612 6.62586 43.7183 6.8882 43.7183 7.42036C43.7183 7.95253 43.5612 8.21487 43.262 8.21487ZM28.041 0.0374766H31.3994L32.9776 11.9925H31.549L28.041 0.0374766ZM24.9071 5.05934L29.2303 12H31.0329L27.2407 1.50656L24.9071 5.05934ZM0 12V11.25H28.0126L28.4403 12H0Z" fill="#999999"/>
</svg>
