<svg width="135" height="16" viewBox="0 0 135 16" fill="none" xmlns="http://www.w3.org/2000/svg">
<path d="M71.5148 10.5266C70.5464 10.5266 69.9916 10.0926 69.7986 9.22452L69.802 9.22108L67.2863 9.77565C67.7102 11.7804 69.1955 12.9481 71.4665 12.9481C72.6934 12.9481 73.7272 12.5141 74.4613 11.7218C75.0299 11.1087 75.34 10.2854 75.34 9.41742C75.34 8.49083 75.0437 7.72614 74.475 7.20256C73.8607 6.63993 73.1613 6.44388 72.4049 6.23184L72.4045 6.23174L72.404 6.23159L72.4034 6.23143C72.299 6.20216 72.1934 6.17253 72.0868 6.14164C71.9135 6.09269 71.753 6.0509 71.6057 6.01258C70.8517 5.8163 70.4465 5.7108 70.4465 5.19783C70.4465 4.79481 70.8221 4.45036 71.3632 4.45036C72.0972 4.45036 72.5349 4.75003 72.8071 5.4975L75.0919 4.73626C74.5233 3.04497 73.2965 2.13216 71.5424 2.13216C69.1542 2.13216 67.6964 3.59955 67.6964 5.57328C67.6964 7.27834 68.6751 8.11537 70.7015 8.71473C70.9409 8.78685 71.1576 8.84334 71.3512 8.89378C72.1188 9.09384 72.5211 9.19868 72.5211 9.80665C72.5211 10.2131 72.1454 10.5266 71.5148 10.5266Z" fill="#999999"/>
<path d="M55.1938 2.47322H48.4634V12.8551H55.2454V10.4302H51.0756V8.66654H54.4597V6.42069H51.0756V4.89474H55.1938V2.47322Z" fill="#999999"/>
<path d="M33.1797 7.47124L36.3915 12.8448H33.0522L31.529 10.2958L30.0437 12.8413L26.7767 12.8448L29.8645 7.50913L26.887 2.5214H30.2194L31.5048 4.67425L32.7489 2.5214H36.071L33.1797 7.47124Z" fill="#999999"/>
<path fill-rule="evenodd" clip-rule="evenodd" d="M17.6823 7.74336C17.6823 4.86026 20.0567 2.52485 22.9859 2.52485C25.9151 2.52485 28.2896 4.86026 28.2896 7.74336C28.2896 10.6265 25.9151 12.9619 22.9859 12.9619C20.0567 12.9619 17.6823 10.6265 17.6823 7.74336ZM23.906 9.86866L23.9267 5.46651C23.9267 4.9636 23.4822 4.51581 22.9721 4.51581C22.4621 4.51581 22.0486 4.9636 22.0486 5.46651V9.85488C22.0486 10.3578 22.4621 10.7642 22.9721 10.7642C23.4822 10.7642 23.9095 10.3716 23.9095 9.86866H23.906Z" fill="#999999"/>
<path d="M58.3711 2.47322H55.7038L58.123 12.8551H60.556L61.7484 6.94426L62.9752 12.8551H65.3565L67.7895 2.47322H65.6322L64.3364 8.4702L63.0682 2.47322H60.8317L59.629 8.5322L58.3711 2.47322Z" fill="#999999"/>
<path d="M45.2102 2.51455V7.72962L42.088 2.51799H39.0795L39.0554 12.8482L41.7158 12.8414V6.85814L45.2791 12.8482H47.7983V2.51799L45.2102 2.51455Z" fill="#999999"/>
<path d="M11.1656 12.8586V2.50765H17.634L17.8305 5.33908H14.212V6.68935H17.1619V9.5139H14.1879V12.8586H11.1656Z" fill="#999999"/>
<path d="M12.196 15.3283H12.7405V14.8082C12.7405 14.7897 12.7413 14.7711 12.7421 14.7522C12.743 14.7324 12.7439 14.7122 12.7439 14.6911C12.7439 14.2536 12.7198 13.823 12.675 13.3994H12.1236C12.1718 13.823 12.196 14.2536 12.196 14.6911V15.3283Z" fill="#999999"/>
<path d="M100.49 7.37482C99.8801 7.37482 99.5734 7.7055 99.5734 8.3703H101.403C101.4 7.97762 101.31 7.71584 101.135 7.57805C100.963 7.44431 100.747 7.37543 100.49 7.37482Z" fill="#999999"/>
<path d="M109.243 7.93971C109.347 7.60904 109.571 7.4437 109.912 7.4437C110.398 7.4437 110.643 7.70548 110.643 8.22561V9.66544C110.643 9.96856 110.57 10.1959 110.425 10.344C110.281 10.4921 110.105 10.5679 109.898 10.5679C109.357 10.5679 109.085 10.096 109.085 9.15565C109.085 8.67685 109.137 8.27039 109.243 7.93971Z" fill="#999999"/>
<path d="M124.958 10.6988C124.52 10.6988 124.303 10.5231 124.303 10.1718H124.307C124.307 9.6551 124.854 9.34509 125.954 9.24175V9.52076C125.954 10.0168 125.857 10.3371 125.664 10.4818C125.468 10.6265 125.234 10.6988 124.958 10.6988Z" fill="#999999"/>
<path fill-rule="evenodd" clip-rule="evenodd" d="M0 0V15.9966H77.8833V16H134.883L134.893 0H0ZM77.3388 15.3386H0.644433V3.107C1.65071 3.107 2.62253 3.24133 3.55299 3.4859L0.70991 15.3249L5.77577 4.32637C6.27546 4.57783 6.75793 4.86372 7.21282 5.18062L0.75471 15.3008L8.66366 6.37244C9.4287 7.11302 10.0904 7.96039 10.6314 8.88698V7.86738C10.1627 7.18192 9.62513 6.54123 9.0255 5.96598L10.6314 4.15414V1.97029H12.5682L13.7433 0.644133H77.3388V15.3386ZM7.47473 0.644133H10.1076L7.50574 4.71905C7.03017 4.38837 6.52703 4.09214 6.00322 3.83036L7.47473 0.644133ZM4.24567 0.644133L3.6805 2.95544C2.70868 2.70054 1.69207 2.56276 0.644433 2.56276V0.644133H4.24567ZM94.1113 11.963H91.6059V8.32896C91.6059 8.08439 91.5646 7.91561 91.4853 7.81916C91.406 7.72271 91.2647 7.67449 91.0614 7.67449C90.579 7.67449 90.3377 7.9845 90.3377 8.60452V11.963H87.8599V8.32896C87.8599 7.86394 87.6566 7.63315 87.2534 7.63315C86.8502 7.63315 86.6262 7.86394 86.6262 8.32896V11.963H84.1415V6.15199H86.4574V6.93391C86.8709 6.33111 87.474 6.03143 88.2631 6.03143C89.1109 6.03143 89.7278 6.33111 90.1137 6.93391C90.541 6.33111 91.1958 6.03143 92.078 6.03143C92.5019 6.03143 92.8707 6.11066 93.1946 6.26566C93.5151 6.42067 93.7494 6.6239 93.8942 6.86846C94.0389 7.11302 94.1113 7.49537 94.1113 8.00861V11.963ZM103.985 9.51044H99.5803C99.5907 9.87557 99.6631 10.1477 99.8009 10.3234C99.9387 10.499 100.201 10.5886 100.59 10.5886C101.152 10.5886 101.479 10.3509 101.579 9.87557L103.985 10.0168C103.843 10.5886 103.478 11.0743 102.896 11.4773C102.31 11.8803 101.521 12.0801 100.525 12.0801C99.4149 12.0801 98.5327 11.7976 97.8745 11.2327C97.2163 10.6678 96.8854 9.96512 96.8854 9.12809C96.8854 8.29107 97.2094 7.52637 97.8607 6.92702C98.512 6.32766 99.3805 6.03143 100.466 6.03143C101.552 6.03143 102.368 6.31389 103.016 6.87535C103.664 7.44026 103.988 8.20504 103.988 9.17641C103.988 9.25563 103.988 9.36582 103.981 9.507L103.985 9.51044ZM113.179 11.963H110.763V11.1914C110.405 11.7873 109.815 12.0835 108.992 12.0835C108.234 12.0835 107.617 11.8217 107.145 11.2982C106.673 10.7746 106.438 10.0133 106.438 9.01442C106.438 8.08095 106.676 7.34037 107.148 6.79268C107.624 6.24499 108.251 5.96943 109.03 5.96943C109.681 5.96943 110.219 6.18988 110.639 6.62734V4.16448H113.179V11.963ZM118.882 11.963H116.301V6.15199H118.882V11.963ZM118.882 5.72487H116.301V3.91991H118.882V5.72487ZM126.081 11.1501C126.081 11.4435 126.108 11.71 126.169 11.9561H128.625C128.49 11.6461 128.425 11.2672 128.425 10.8263V8.50807C128.425 7.87772 128.383 7.45404 128.294 7.23358C128.204 7.01313 128.032 6.80646 127.773 6.60667C127.515 6.40689 127.163 6.26222 126.719 6.16921C126.274 6.07621 125.788 6.02799 125.258 6.02799C123.307 6.02799 122.163 6.63423 121.825 7.85016L124.179 8.04306C124.248 7.61938 124.579 7.40926 125.175 7.40926C125.43 7.40926 125.623 7.45404 125.754 7.53671C125.885 7.62282 125.95 7.7916 125.95 8.0465V8.17739C124.341 8.25317 123.221 8.48052 122.59 8.85942C121.96 9.23832 121.643 9.73434 121.643 10.3475C121.643 10.8022 121.836 11.2017 122.222 11.5531C122.608 11.9044 123.19 12.0801 123.965 12.0801C124.91 12.0801 125.616 11.7701 126.081 11.1501Z" fill="#999999"/>
</svg>
