<svg width="64" height="16" viewBox="0 0 64 16" fill="none" xmlns="http://www.w3.org/2000/svg">
<path fill-rule="evenodd" clip-rule="evenodd" d="M0 0H63.9957V1.76078H0V0ZM48.6466 6.38211C48.6466 4.27494 50.4954 2.79704 52.5001 2.79704C54.5048 2.79704 56.3536 4.27494 56.3536 6.38211C56.3536 8.63937 54.7357 10.227 52.5001 10.227C50.2645 10.227 48.6466 8.63648 48.6466 6.38211ZM52.5434 7.4429L54.0011 8.45319L53.4714 6.75302L54.8887 5.68212L53.112 5.64893L52.5347 3.96897L51.9574 5.64893L50.1865 5.68212L51.6053 6.75302L51.0871 8.45319L52.5434 7.4429ZM0 2.86632V13.0341H2.96446L2.9659 9.74634H5.88274V6.9724H2.989V5.64604H6.54231L6.34602 2.86632H0ZM21.6056 7.7431L24.7592 13.0182H21.4786L19.9863 10.517L18.5271 13.0153L15.3202 13.0182L18.3511 7.77774L15.4299 2.88219H18.6989L19.9618 4.99369L21.1828 2.88219H24.4431L21.6056 7.7431ZM12.5044 10.0942L12.5232 5.77305C12.5155 5.52707 12.4141 5.29333 12.2397 5.11972C12.0653 4.94611 11.8311 4.84577 11.5851 4.83926C11.3426 4.84712 11.1126 4.94892 10.9438 5.12315C10.7749 5.29739 10.6804 5.53042 10.6801 5.77305V10.0826C10.6879 10.3186 10.7867 10.5424 10.9559 10.7071C11.125 10.8718 11.3514 10.9646 11.5874 10.9661C11.8235 10.9676 12.051 10.8777 12.2223 10.7151C12.3935 10.5525 12.4951 10.33 12.5059 10.0942H12.5044ZM6.39365 8.00722C6.39365 5.17698 8.72452 2.88652 11.6009 2.88652C14.4774 2.88652 16.8082 5.18131 16.8082 8.01155C16.8082 10.8418 14.4759 13.1337 11.6009 13.1337C8.72596 13.1337 6.39365 10.8375 6.39365 8.00722ZM27.9055 3.03085H26.0942V9.99459H27.9026V5.72686H27.9213L31.2408 9.99459H33.0507V3.03085H31.2437V7.29136H31.225L27.9055 3.03085ZM36.2389 8.78513L35.7583 9.99459H33.8373L36.5145 3.03085H38.4918L41.1185 9.99459H39.1874L38.7343 8.78513H36.2389ZM37.506 5.17698H37.4873L36.7382 7.39383H38.2464L37.506 5.17698ZM41.9499 9.99459H43.7597V4.56215H45.2578V3.03085H40.4517V4.56215H41.9499V9.99459ZM47.9552 9.99459H46.144V3.03085H47.9552V9.99459ZM57.0088 3.03085H58.8201L62.1396 7.29136H62.1584V3.03085H63.9697V9.99459H62.1555L58.836 5.72686H58.8172V9.99459H57.0088V3.03085ZM63.9956 11.23H25.5024V12.9908H63.9956V11.23ZM0 14.2392H63.9957V16H0V14.2392Z" fill="#999999"/>
</svg>
