<svg width="141" height="16" viewBox="0 0 141 16" fill="none" xmlns="http://www.w3.org/2000/svg">
<g clip-path="url(#clip0_8807_34657)">
<path d="M140.15 0H0.995605V16H140.15L136.84 8L140.15 0ZM80.4827 15.2914H1.70754L1.67717 0.681569H80.4827V15.2914ZM139.152 15.2172H81.2419V0.654576L139.152 0.705188L136.118 7.96289L139.152 15.2206V15.2172Z" fill="#999999"/>
<path d="M12.2516 13.2636V2.77351H18.7974L18.9998 5.6415H15.3355V7.01139H18.3216V9.87263H15.3086V13.2636H12.2516Z" fill="#999999"/>
<path d="M11.7084 8.20245C11.2326 7.50738 10.6894 6.85955 10.0821 6.27921L11.7084 4.4437V2.23028H13.6687L15.042 0.681569H11.3069L8.54348 5.01392C8.06098 4.67988 7.55149 4.37621 7.02176 4.11303L8.60084 0.681569H5.28409L4.67338 3.22902C3.68139 2.96921 2.63879 2.83087 1.56583 2.83087V3.38423C2.59493 3.38423 3.59367 3.51919 4.54516 3.76887L1.66368 15.7604L6.78894 4.61577C7.29506 4.86883 7.78093 5.159 8.24318 5.47954L1.70754 15.7334L9.71429 6.69085C10.4903 7.4399 11.1584 8.30029 11.705 9.2383V8.20245H11.7084Z" fill="#999999"/>
<path d="M13.22 13.8035C13.2672 14.232 13.2942 14.6706 13.2942 15.1126C13.2942 15.1464 13.2942 15.1801 13.2942 15.2105V15.2914L13.8442 15.3016V15.2307C13.8476 15.1902 13.8476 15.1531 13.8476 15.1126C13.8476 14.6706 13.8239 14.232 13.7767 13.8035H13.22Z" fill="#999999"/>
<path d="M12.2516 13.2636V2.77351H18.7974L18.9998 5.6415H15.3355V7.01139H18.3216V9.87263H15.3086V13.2636H12.2516Z" fill="#999999"/>
<path d="M37.7936 13.2467L34.5409 7.8043L37.4663 2.79038H34.1023L32.8438 4.96668L31.5414 2.79038H28.1673L31.1837 7.84142L28.0559 13.2467L31.3659 13.2434L32.8708 10.6655L34.4094 13.2467H37.7936Z" fill="#999999"/>
<path d="M25.1508 10.2303L25.1711 5.77309C25.1711 5.2636 24.7189 4.8081 24.2027 4.8081C23.6865 4.8081 23.2681 5.2636 23.2681 5.77309V10.2168C23.2681 10.7263 23.6865 11.1379 24.2027 11.1379C24.7189 11.1379 25.1508 10.7398 25.1508 10.2303ZM18.848 8.07761C18.848 5.15901 21.2537 2.79038 24.2196 2.79038C27.1854 2.79038 29.5911 5.15901 29.5911 8.07761C29.5911 10.9962 27.1854 13.3648 24.2196 13.3648C21.2537 13.3648 18.848 10.9962 18.848 8.07761Z" fill="#999999"/>
<path d="M56.8303 2.73977V5.19612H52.6599V6.74146H56.088V9.0156H52.6599V10.8039H56.8809V13.2602H50.0112V2.73977H56.8303Z" fill="#999999"/>
<path d="M57.3465 2.73977H60.0458L61.3178 8.87727L62.5393 2.73977H64.8033L66.0888 8.81653L67.398 2.73977H69.5844L67.1213 13.2569H64.7088L63.4638 7.27119L62.2592 13.2569H59.7961L57.3465 2.73977Z" fill="#999999"/>
<path d="M71.6156 9.57908C71.8113 10.4597 72.3748 10.8984 73.3533 10.8984C73.9943 10.8984 74.3722 10.5812 74.3722 10.1695C74.3722 9.39688 73.7312 9.42725 72.53 9.06284C70.4785 8.4555 69.4865 7.6086 69.4865 5.88106C69.4865 3.88022 70.9644 2.39561 73.3803 2.39561C75.1584 2.39561 76.3967 3.32012 76.9737 5.03416L74.6624 5.80683C74.3891 5.04766 73.9437 4.74736 73.1981 4.74736C72.6481 4.74736 72.2702 5.0949 72.2702 5.50654C72.2702 6.12737 72.8573 6.15774 73.9302 6.46141C74.8176 6.71784 75.6409 6.88655 76.3461 7.53775C76.9197 8.06748 77.22 8.84015 77.22 9.78153C77.22 10.6622 76.9062 11.4956 76.3326 12.1164C75.5869 12.9194 74.5443 13.3581 73.3027 13.3581C71.0015 13.3581 69.5 12.1771 69.0682 10.1459L71.6156 9.58583V9.57908Z" fill="#999999"/>
<path d="M46.7215 2.78026V8.06411L43.5599 2.78701H40.5131L40.4861 13.2501L43.182 13.2434V7.18347L46.7923 13.2501H49.3398V2.78701L46.7215 2.78026Z" fill="#999999"/>
<path d="M84.9231 4.83509H87.8046V6.98102H87.8484C88.2567 6.50865 88.8809 6.33657 89.7548 6.33657C91.8366 6.33657 92.5485 7.58161 92.5485 8.69169C92.5485 9.98397 91.6747 11.1649 89.3465 11.1649C88.3579 11.1649 87.5279 10.9456 86.961 10.4361C86.7856 10.6352 86.6709 10.8545 86.5696 11.0738H84.9264V4.83509H84.9231ZM87.818 9.22817C87.818 9.59258 87.8923 10.038 88.6481 10.038C89.6367 10.038 89.6097 9.2113 89.6097 8.76592C89.6097 8.32054 89.6536 7.49388 88.6211 7.49388C88.3579 7.49388 88.1555 7.57486 87.9935 7.70308C87.7911 7.85829 87.818 8.00338 87.818 8.1957V9.23155V9.22817Z" fill="#999999"/>
<path d="M102.681 8.79291C102.681 10.2033 100.862 11.1683 98.5916 11.1683C96.3208 11.1683 94.5022 10.2033 94.5022 8.79291C94.5022 7.30156 96.2634 6.33657 98.5916 6.33657C100.92 6.33657 102.681 7.30156 102.681 8.79291ZM97.5861 8.72881C97.5861 9.97385 98.0652 10.065 98.5916 10.065C99.1179 10.065 99.597 9.97385 99.597 8.72881C99.597 8.28343 99.5835 7.47364 98.5916 7.47364C97.5996 7.47364 97.5861 8.28343 97.5861 8.72881Z" fill="#999999"/>
<path d="M112.867 8.79291C112.867 10.2033 111.049 11.1683 108.778 11.1683C106.507 11.1683 104.689 10.2033 104.689 8.79291C104.689 7.30156 106.45 6.33657 108.778 6.33657C111.106 6.33657 112.867 7.30156 112.867 8.79291ZM107.772 8.72881C107.772 9.97385 108.252 10.065 108.778 10.065C109.304 10.065 109.783 9.97385 109.783 8.72881C109.783 8.28343 109.77 7.47364 108.778 7.47364C107.786 7.47364 107.772 8.28343 107.772 8.72881Z" fill="#999999"/>
<path d="M120.682 8.02699L123.185 11.0738H120.172L118.775 9.20793L118.047 9.79165V11.0738H115.165V4.83509H118.047V8.20245L118.671 7.68283L120.419 6.42767H122.922L120.682 8.03037V8.02699Z" fill="#999999"/>
<path d="M126.998 9.56559C127.157 10.011 127.96 10.065 128.584 10.065C128.874 10.065 129.691 10.0481 129.691 9.77478C129.691 9.53859 128.702 9.49135 128.439 9.47448C126.88 9.33952 125.034 9.1472 125.034 7.9089C125.034 7.38254 125.487 6.96415 126.185 6.69085C126.914 6.40742 127.744 6.33657 128.57 6.33657C129.967 6.33657 131.438 6.67398 131.934 7.54787L129.738 7.81105C129.519 7.49388 128.952 7.40278 128.442 7.40278C127.933 7.40278 127.511 7.51076 127.511 7.64909C127.511 7.79418 127.713 7.84817 127.946 7.88528C128.267 7.93927 128.847 7.96626 129.198 7.99325C129.866 8.04724 130.639 8.10122 131.223 8.33741C131.907 8.61071 132.272 9.01898 132.272 9.52172C132.272 10.8039 130.102 11.1683 128.429 11.1683C126.755 11.1683 125.24 10.8309 124.687 9.75791L127.002 9.56559H126.998Z" fill="#999999"/>
</g>
<defs>
<clipPath id="clip0_8807_34657">
<rect width="139.155" height="16" fill="white" transform="translate(0.995605)"/>
</clipPath>
</defs>
</svg>
