<svg width="47" height="14" viewBox="0 0 47 14" fill="none" xmlns="http://www.w3.org/2000/svg">
<path fill-rule="evenodd" clip-rule="evenodd" d="M7.70173 7.03951C7.70173 7.39389 7.70429 7.74839 7.70685 8.1029C7.71308 8.96609 7.71932 9.82937 7.68859 10.6913C7.66757 11.2585 7.60058 11.8568 7.38383 12.3748C6.95297 13.3953 6.17531 14.0246 4.96548 13.978C4.54118 13.9612 4.11557 13.9663 3.69128 13.978C2.61674 14.0065 1.86536 13.4717 1.44106 12.5729C1.18238 12.0217 1.04067 11.4241 1.02465 10.817C0.979984 8.31894 0.995747 5.81964 1.01545 3.32033C1.02035 2.87184 1.09341 2.4266 1.2322 1.99946C1.56848 0.976423 2.28571 0.32764 3.37732 0.110084C3.56821 0.0668477 3.7617 0.0357045 3.95662 0.0168453C6.38155 -0.165747 7.64262 1.16549 7.68596 3.09889C7.70523 3.97334 7.69881 4.84893 7.69239 5.72491L7.69239 5.72502C7.68918 6.16312 7.68596 6.60131 7.68596 7.03951H7.70173ZM5.50274 7.06282H5.48961C5.48961 6.66527 5.49224 6.26773 5.49486 5.87025V5.87023V5.87021V5.8702V5.87018V5.87016V5.87015V5.87014V5.87013V5.87012V5.87011C5.50114 4.91979 5.50742 3.96985 5.47779 3.02119C5.45677 2.3478 5.04955 2.02277 4.40982 2.00334C3.77009 1.98392 3.39177 2.26234 3.26172 2.93184C3.2177 3.18456 3.19791 3.4408 3.20261 3.69717V10.4311C3.2054 10.7514 3.2406 11.0707 3.3077 11.3842C3.40622 11.8542 3.74776 12.0731 4.21803 12.1197C5.01408 12.1974 5.47122 11.7973 5.49224 10.9089C5.51561 9.99821 5.51103 9.08554 5.50645 8.17231C5.5046 7.80254 5.50274 7.43268 5.50274 7.06282ZM29.6732 13.9404H27.4295C26.9502 12.7359 26.4655 11.5109 25.9629 10.2407L25.9625 10.2398C25.7628 9.73493 25.5602 9.22293 25.354 8.70224C24.868 9.28887 24.5974 9.81592 24.6092 10.4854C24.6223 11.2276 24.618 11.9703 24.6137 12.7317C24.6114 13.1195 24.6092 13.5121 24.6092 13.9119H22.4076V0.353524C22.5169 0.345591 22.6171 0.337253 22.7113 0.329423L22.7113 0.329422C22.9092 0.31297 23.08 0.29876 23.2509 0.29525C23.5246 0.289312 23.7983 0.291154 24.0919 0.293132C24.2465 0.294172 24.4065 0.29525 24.575 0.29525V5.9297C25.3307 4.7492 25.9412 3.5138 26.5501 2.28156C26.8716 1.63083 27.1928 0.980987 27.5346 0.340575H29.6981C29.1138 1.5212 28.5395 2.67658 27.9711 3.8203C27.5338 4.70008 27.1 5.57296 26.6676 6.4451C27.1475 7.64241 27.6244 8.83142 28.1025 10.0233L28.1041 10.0274C28.624 11.3235 29.1452 12.623 29.6732 13.9404ZM45.0555 13.934H46.9957L46.8126 13.4752L46.8118 13.4734C45.9823 11.3958 45.1757 9.3758 44.3646 7.35807C44.7343 6.55846 45.1315 5.77624 45.5311 4.98942L45.5312 4.98929C46.0175 4.03169 46.5072 3.06728 46.955 2.05643H45.1041L42.7396 6.90482L42.5544 6.85562V2.08492H40.7351V13.921H42.5912C42.5912 13.5616 42.5925 13.2078 42.5939 12.8579V12.8572V12.8565V12.8558V12.8552C42.5965 12.1646 42.599 11.4889 42.5912 10.8131C42.5836 10.5366 42.6377 10.2618 42.7499 10.0082C42.862 9.75465 43.0294 9.52852 43.2401 9.34586L45.0555 13.934ZM9.12958 2.07197H10.9962V3.05615V10.6564C10.9853 10.9462 10.9936 11.2365 11.0212 11.5253C11.1013 12.1184 11.4376 12.4137 11.9827 12.4162C12.5279 12.4188 12.8773 12.121 12.9496 11.5383C12.9774 11.2508 12.9862 10.9618 12.9758 10.6732V3.07299V2.07974H14.7256C14.7316 2.17534 14.7387 2.2661 14.7456 2.35366L14.7456 2.35368C14.7597 2.53415 14.7728 2.70097 14.7728 2.86838C14.7728 3.62792 14.774 4.38756 14.7751 5.14724V5.14738V5.14751V5.14765C14.7781 7.0819 14.781 9.01645 14.765 10.9503C14.7692 11.4935 14.6894 12.0341 14.5285 12.5535C14.1988 13.5416 13.5157 13.9676 12.4635 13.978H11.4823C10.275 13.9715 9.52366 13.4121 9.23073 12.2621C9.13189 11.8904 9.07896 11.5082 9.07309 11.1239C9.06127 8.23736 9.06652 5.35085 9.07309 2.46435C9.08486 2.33266 9.10371 2.20168 9.12958 2.07197ZM37.6967 6.00611H39.4227C39.4227 5.77624 39.4308 5.55131 39.4387 5.33055C39.4557 4.85485 39.4721 4.39847 39.4057 3.95357C39.2349 2.82435 38.4835 2.14578 37.3407 1.92952C35.323 1.55397 33.941 2.58996 33.7979 4.61401C33.7913 4.67617 33.7913 4.74221 33.7913 4.80566C33.7913 5.37542 33.7903 5.94508 33.7894 6.51468L33.7894 6.52125V6.52146V6.52167C33.7868 8.06513 33.7842 9.60809 33.8005 11.1511C33.8071 11.5991 33.8806 12.0437 34.0185 12.4706C34.3351 13.4548 35.0931 13.9663 36.144 13.9793C36.4375 13.9624 36.7318 13.9624 37.0254 13.9793C38.2786 14.136 39.139 13.2049 39.3649 12.2285C39.5497 11.365 39.5675 10.4749 39.4175 9.60485H37.6967V10.5321C37.7077 10.8525 37.7002 11.1733 37.6743 11.4929C37.5745 12.2712 36.81 12.6429 36.1663 12.244C35.8248 12.0342 35.721 11.7053 35.721 11.3375V9.31866C35.721 8.89562 35.7201 8.47247 35.7191 8.04926V8.04904V8.04882C35.7167 6.96679 35.7143 5.88428 35.7276 4.80178C35.7367 3.98335 36.0546 3.61687 36.6773 3.59486C37.3328 3.57155 37.6678 3.9717 37.6967 4.83027C37.7036 5.07733 37.7014 5.32495 37.6991 5.58603V5.58609V5.58614C37.6979 5.72188 37.6967 5.86127 37.6967 6.00611ZM19.4848 13.9469H17.563V3.78651L15.6005 3.69716V2.1639C16.3216 1.99297 20.1456 1.95671 21.3922 2.11599V3.68291L19.4848 3.78522V13.9469ZM32.4173 2.05513H30.7201C30.552 3.63371 30.6045 13.2502 30.7923 13.9741C30.8847 13.9741 30.9795 13.9751 31.0752 13.9761C31.2695 13.9781 31.4675 13.9802 31.6567 13.9741C31.8645 13.9674 32.0752 13.9516 32.2767 13.9365C32.349 13.9311 32.4202 13.9258 32.4895 13.921C32.659 12.3126 32.5999 2.7596 32.4173 2.05513Z" fill="#999999"/>
</svg>
